<svg xmlns="http://www.w3.org/2000/svg" xmlns:xlink="http://www.w3.org/1999/xlink" width="500" zoomAndPan="magnify" viewBox="0 0 375 149.999998" height="200" preserveAspectRatio="xMidYMid meet" version="1.0"><defs><g/><clipPath id="13ff23e5f4"><path d="M 26.476562 7.144531 L 117.226562 7.144531 L 117.226562 142.894531 L 26.476562 142.894531 Z M 26.476562 7.144531 " clip-rule="nonzero"/></clipPath></defs><path fill="#4fb4a8" d="M 71.851562 30.636719 L 116.074219 75.019531 L 71.851562 119.402344 L 27.625 75.019531 Z M 71.851562 30.636719 " fill-opacity="1" fill-rule="evenodd"/><g clip-path="url(#13ff23e5f4)"><path fill="#26786e" d="M 93.960938 73.867188 L 71.851562 51.675781 L 49.738281 73.867188 L 28.75 52.800781 L 71.851562 9.574219 C 71.851562 9.574219 109.828125 47.6875 114.949219 52.828125 Z M 50.859375 75.019531 L 71.851562 96.085938 L 92.839844 75.019531 L 71.851562 53.957031 Z M 49.738281 76.175781 L 71.851562 98.367188 L 93.960938 76.175781 L 114.949219 97.238281 L 71.851562 140.464844 L 28.75 97.210938 Z M 48.585938 75.019531 L 26.476562 97.210938 L 71.851562 142.75 L 117.226562 97.210938 L 95.113281 75.019531 L 117.226562 52.828125 L 71.851562 7.292969 L 26.476562 52.828125 Z M 48.585938 75.019531 " fill-opacity="1" fill-rule="evenodd"/></g><g fill="#737373" fill-opacity="1"><g transform="translate(123.239029, 112.604782)"><g><path d="M 39.15625 -48.28125 C 39.570312 -52.113281 42.273438 -54.03125 47.265625 -54.03125 C 49.929688 -54.03125 51.910156 -53.820312 53.203125 -53.40625 C 54.503906 -53 55.410156 -52.28125 55.921875 -51.25 C 56.429688 -50.226562 56.738281 -49.320312 56.84375 -48.53125 C 56.945312 -47.75 57 -46.570312 57 -45 L 57 -9.125 C 57 -7.550781 56.945312 -6.367188 56.84375 -5.578125 C 56.738281 -4.796875 56.445312 -3.894531 55.96875 -2.875 C 55.007812 -1.09375 52.664062 -0.203125 48.9375 -0.203125 C 45.21875 -0.203125 42.726562 -0.660156 41.46875 -1.578125 C 40.207031 -2.503906 39.472656 -3.859375 39.265625 -5.640625 C 36.734375 -2.015625 32.507812 -0.203125 26.59375 -0.203125 C 20.6875 -0.203125 15.203125 -2.898438 10.140625 -8.296875 C 5.085938 -13.703125 2.5625 -19.972656 2.5625 -27.109375 C 2.5625 -34.253906 5.109375 -40.507812 10.203125 -45.875 C 15.296875 -51.238281 20.882812 -53.921875 26.96875 -53.921875 C 29.289062 -53.921875 31.40625 -53.507812 33.3125 -52.6875 C 35.226562 -51.875 36.5625 -51.109375 37.3125 -50.390625 C 38.0625 -49.671875 38.675781 -48.96875 39.15625 -48.28125 Z M 20.5 -26.953125 C 20.5 -24.703125 21.382812 -22.671875 23.15625 -20.859375 C 24.9375 -19.046875 27.09375 -18.140625 29.625 -18.140625 C 32.15625 -18.140625 34.253906 -19.0625 35.921875 -20.90625 C 37.597656 -22.757812 38.4375 -24.796875 38.4375 -27.015625 C 38.4375 -29.234375 37.632812 -31.296875 36.03125 -33.203125 C 34.425781 -35.117188 32.273438 -36.078125 29.578125 -36.078125 C 26.878906 -36.078125 24.691406 -35.117188 23.015625 -33.203125 C 21.335938 -31.296875 20.5 -29.210938 20.5 -26.953125 Z M 20.5 -26.953125 "/></g></g></g><g fill="#737373" fill-opacity="1"><g transform="translate(184.338614, 112.604782)"><g><path d="M 28.09375 -0.203125 C 21.1875 -0.203125 15.457031 -2.816406 10.90625 -8.046875 C 6.363281 -13.273438 4.09375 -19.648438 4.09375 -27.171875 L 4.09375 -45.109375 C 4.09375 -46.742188 4.144531 -47.9375 4.25 -48.6875 C 4.351562 -49.445312 4.644531 -50.335938 5.125 -51.359375 C 6.082031 -53.203125 8.75 -54.125 13.125 -54.125 C 17.90625 -54.125 20.707031 -52.828125 21.53125 -50.234375 C 21.9375 -49.140625 22.140625 -47.394531 22.140625 -45 L 22.140625 -27.0625 C 22.140625 -24.257812 22.941406 -22.070312 24.546875 -20.5 C 26.160156 -18.925781 28.316406 -18.140625 31.015625 -18.140625 C 33.710938 -18.140625 35.894531 -18.957031 37.5625 -20.59375 C 39.238281 -22.238281 40.078125 -24.394531 40.078125 -27.0625 L 40.078125 -45.203125 C 40.078125 -46.773438 40.128906 -47.953125 40.234375 -48.734375 C 40.335938 -49.523438 40.664062 -50.4375 41.21875 -51.46875 C 42.101562 -53.238281 44.734375 -54.125 49.109375 -54.125 C 53.410156 -54.125 56.039062 -53.203125 57 -51.359375 C 57.476562 -50.335938 57.769531 -49.429688 57.875 -48.640625 C 57.976562 -47.859375 58.03125 -46.679688 58.03125 -45.109375 L 58.03125 -8.8125 C 58.03125 -7.3125 57.976562 -6.164062 57.875 -5.375 C 57.769531 -4.59375 57.441406 -3.722656 56.890625 -2.765625 C 55.867188 -0.992188 53.238281 -0.109375 49 -0.109375 C 44.832031 -0.109375 42.269531 -0.925781 41.3125 -2.5625 C 40.625 -3.726562 40.28125 -5.128906 40.28125 -6.765625 C 40.007812 -6.285156 39.394531 -5.601562 38.4375 -4.71875 C 37.488281 -3.832031 36.566406 -3.078125 35.671875 -2.453125 C 33.347656 -0.953125 30.820312 -0.203125 28.09375 -0.203125 Z M 28.09375 -0.203125 "/></g></g></g><g fill="#737373" fill-opacity="1"><g transform="translate(246.463371, 112.604782)"><g><path d="M 35.46875 -35.875 L 28.8125 -36.296875 L 28.8125 -22.140625 C 28.8125 -20.296875 29.097656 -18.960938 29.671875 -18.140625 C 30.253906 -17.328125 31.347656 -16.921875 32.953125 -16.921875 C 34.566406 -16.921875 35.800781 -16.867188 36.65625 -16.765625 C 37.507812 -16.660156 38.410156 -16.332031 39.359375 -15.78125 C 40.929688 -14.894531 41.71875 -12.609375 41.71875 -8.921875 C 41.71875 -4.609375 40.765625 -1.976562 38.859375 -1.03125 C 37.828125 -0.550781 36.914062 -0.257812 36.125 -0.15625 C 35.34375 -0.0507812 34.203125 0 32.703125 0 C 25.597656 0 20.195312 -1.601562 16.5 -4.8125 C 12.8125 -8.03125 10.96875 -13.46875 10.96875 -21.125 L 10.96875 -36.296875 C 9.664062 -36.085938 8.265625 -35.984375 6.765625 -35.984375 C 5.265625 -35.984375 4.015625 -36.5625 3.015625 -37.71875 C 2.023438 -38.882812 1.53125 -40.867188 1.53125 -43.671875 C 1.53125 -46.472656 1.703125 -48.503906 2.046875 -49.765625 C 2.390625 -51.035156 2.867188 -51.941406 3.484375 -52.484375 C 4.578125 -53.378906 5.945312 -53.828125 7.59375 -53.828125 L 10.96875 -53.40625 L 10.96875 -63.96875 C 10.96875 -65.539062 11.019531 -66.703125 11.125 -67.453125 C 11.226562 -68.203125 11.550781 -69.023438 12.09375 -69.921875 C 12.976562 -71.628906 15.609375 -72.484375 19.984375 -72.484375 C 24.640625 -72.484375 27.410156 -71.21875 28.296875 -68.6875 C 28.640625 -67.59375 28.8125 -65.847656 28.8125 -63.453125 L 28.8125 -53.40625 C 31.8125 -53.6875 34.082031 -53.828125 35.625 -53.828125 C 37.164062 -53.828125 38.328125 -53.773438 39.109375 -53.671875 C 39.890625 -53.566406 40.796875 -53.238281 41.828125 -52.6875 C 43.597656 -51.800781 44.484375 -49.171875 44.484375 -44.796875 C 44.484375 -40.492188 43.5625 -37.863281 41.71875 -36.90625 C 40.695312 -36.425781 39.789062 -36.132812 39 -36.03125 C 38.21875 -35.925781 37.039062 -35.875 35.46875 -35.875 Z M 35.46875 -35.875 "/></g></g></g><g fill="#737373" fill-opacity="1"><g transform="translate(292.4931, 112.604782)"><g><path d="M 34.03125 -53.828125 C 40.863281 -53.828125 46.550781 -51.226562 51.09375 -46.03125 C 55.644531 -40.832031 57.921875 -34.476562 57.921875 -26.96875 L 57.921875 -8.921875 C 57.921875 -7.347656 57.867188 -6.164062 57.765625 -5.375 C 57.660156 -4.59375 57.335938 -3.691406 56.796875 -2.671875 C 55.910156 -0.890625 53.28125 0 48.90625 0 C 44.726562 0 42.128906 -0.890625 41.109375 -2.671875 C 40.554688 -3.691406 40.226562 -4.609375 40.125 -5.421875 C 40.03125 -6.242188 39.984375 -7.476562 39.984375 -9.125 L 39.984375 -27.0625 C 39.984375 -29.863281 39.195312 -32.050781 37.625 -33.625 C 36.050781 -35.195312 34.050781 -35.984375 31.625 -35.984375 C 29.195312 -35.984375 27.0625 -35.25 25.21875 -33.78125 C 23.375 -32.3125 22.316406 -30.65625 22.046875 -28.8125 L 22.046875 -8.921875 C 22.046875 -7.347656 21.992188 -6.164062 21.890625 -5.375 C 21.785156 -4.59375 21.457031 -3.691406 20.90625 -2.671875 C 20.019531 -0.890625 17.390625 0 13.015625 0 C 8.710938 0 6.082031 -0.921875 5.125 -2.765625 C 4.644531 -3.796875 4.351562 -4.6875 4.25 -5.4375 C 4.144531 -6.1875 4.09375 -7.378906 4.09375 -9.015625 L 4.09375 -70.328125 C 4.09375 -71.898438 4.144531 -73.078125 4.25 -73.859375 C 4.351562 -74.648438 4.644531 -75.523438 5.125 -76.484375 C 6.082031 -78.328125 8.75 -79.25 13.125 -79.25 C 17.425781 -79.25 20.019531 -78.328125 20.90625 -76.484375 C 21.457031 -75.453125 21.785156 -74.539062 21.890625 -73.75 C 21.992188 -72.96875 22.046875 -71.789062 22.046875 -70.21875 L 22.046875 -47.5625 C 25.460938 -51.738281 29.457031 -53.828125 34.03125 -53.828125 Z M 34.03125 -53.828125 "/></g></g></g></svg>