<svg xmlns="http://www.w3.org/2000/svg" xmlns:xlink="http://www.w3.org/1999/xlink" width="200" zoomAndPan="magnify" viewBox="0 0 150 149.999998" height="200" preserveAspectRatio="xMidYMid meet" version="1.0"><defs><clipPath id="8c1dfb21f7"><path d="M 25.984375 2 L 124.234375 2 L 124.234375 148.1875 L 25.984375 148.1875 Z M 25.984375 2 " clip-rule="nonzero"/></clipPath></defs><path fill="#4fb4a8" d="M 75.109375 27.25 L 122.988281 75.0625 L 75.109375 122.875 L 27.226562 75.0625 Z M 75.109375 27.25 " fill-opacity="1" fill-rule="evenodd"/><g clip-path="url(#8c1dfb21f7)"><path fill="#26786e" d="M 99.046875 73.820312 L 75.109375 49.914062 L 51.167969 73.820312 L 28.445312 51.128906 L 75.109375 4.558594 C 75.109375 4.558594 116.222656 45.617188 121.769531 51.15625 Z M 52.382812 75.0625 L 75.109375 97.753906 L 97.832031 75.0625 L 75.109375 52.371094 Z M 51.167969 76.308594 L 75.109375 100.214844 L 99.046875 76.308594 L 121.769531 99 L 75.109375 145.566406 L 28.445312 98.96875 Z M 49.921875 75.0625 L 25.984375 98.96875 L 75.109375 148.027344 L 124.234375 98.96875 L 100.292969 75.0625 L 124.234375 51.15625 L 75.109375 2.101562 L 25.984375 51.15625 Z M 49.921875 75.0625 " fill-opacity="1" fill-rule="evenodd"/></g></svg>